<?xml version="1.0" encoding="UTF-8" standalone="no"?>
<!-- Uploaded to: SVG Repo, www.svgrepo.com, Generator: SVG Repo Mixer Tools -->

<svg
   fill="#000000"
   version="1.1"
   id="Capa_1"
   width="800"
   height="800"
   viewBox="0 0 612 612"
   xml:space="preserve"
   xmlns="http://www.w3.org/2000/svg"
   xmlns:svg="http://www.w3.org/2000/svg"><defs
   id="defs9" />
<g
   id="g9"
   style="fill:#3d6373;fill-opacity:1">
	<g
   id="g8"
   style="fill:#3d6373;fill-opacity:1">
		<path
   d="m 612,463.781 c 0,-70.342 -49.018,-129.199 -114.75,-144.379 -10.763,-2.482 -21.951,-3.84 -33.469,-3.84 -3.218,0 -6.397,0.139 -9.562,0.34 -71.829,4.58 -129.725,60.291 -137.69,131.145 -0.617,5.494 -0.966,11.073 -0.966,16.734 0,10.662 1.152,21.052 3.289,31.078 C 333.139,561.792 392.584,612 463.781,612 545.641,612 612,545.641 612,463.781 Z m -148.219,98.016 c -54.133,0 -98.016,-43.883 -98.016,-98.016 0,-54.133 43.883,-98.016 98.016,-98.016 54.133,0 98.016,43.883 98.016,98.016 0,54.133 -43.883,98.016 -98.016,98.016 z"
   id="path1"
   style="fill:#3d6373;fill-opacity:1" />
		<polygon
   points="396.844,482.906 482.906,482.906 482.906,449.438 482.906,449.438 482.906,396.844 449.438,396.844 449.438,449.438 396.844,449.438 "
   id="polygon1"
   style="fill:#3d6373;fill-opacity:1" />
		<path
   d="M 109.969,0 C 100.741,0 93.235,7.507 93.235,16.734 v 38.25 40.641 c 0,9.228 7.506,16.734 16.734,16.734 h 14.344 c 9.228,0 16.734,-7.507 16.734,-16.734 V 54.984 16.734 C 141.047,7.507 133.541,0 124.312,0 Z"
   id="path2"
   style="fill:#3d6373;fill-opacity:1" />
		<path
   d="m 372.938,0 c -9.228,0 -16.734,7.507 -16.734,16.734 v 38.25 40.641 c 0,9.228 7.507,16.734 16.734,16.734 h 14.344 c 9.228,0 16.734,-7.507 16.734,-16.734 V 54.984 16.734 C 404.016,7.507 396.509,0 387.281,0 Z"
   id="path3"
   style="fill:#3d6373;fill-opacity:1" />
		<path
   d="m 38.25,494.859 h 236.672 c -2.333,-11.6 -3.572,-23.586 -3.572,-35.859 0,-4.021 0.177,-7.999 0.435,-11.953 H 71.719 c -15.845,0 -28.688,-12.843 -28.688,-28.688 v -229.5 h 411.188 v 88.707 c 3.165,-0.163 6.354,-0.253 9.562,-0.253 11.437,0 22.61,1.109 33.469,3.141 V 93.234 c 0,-21.124 -17.126,-38.25 -38.25,-38.25 h -31.078 v 40.641 c 0,22.41 -18.23,40.641 -40.641,40.641 h -14.344 c -22.41,0 -40.641,-18.231 -40.641,-40.641 V 54.984 H 164.953 v 40.641 c 0,22.41 -18.231,40.641 -40.641,40.641 h -14.344 c -22.41,0 -40.641,-18.231 -40.641,-40.641 V 54.984 H 38.25 C 17.126,54.984 0,72.111 0,93.234 v 363.375 c 0,21.124 17.126,38.25 38.25,38.25 z"
   id="path4"
   style="fill:#3d6373;fill-opacity:1" />
		<circle
   cx="134.774"
   cy="260.578"
   r="37.953999"
   id="circle4"
   style="fill:#3d6373;fill-opacity:1" />
		<circle
   cx="248.625"
   cy="260.578"
   r="37.953999"
   id="circle5"
   style="fill:#3d6373;fill-opacity:1" />
		<circle
   cx="362.47699"
   cy="260.578"
   r="37.953999"
   id="circle6"
   style="fill:#3d6373;fill-opacity:1" />
		<circle
   cx="248.625"
   cy="375.328"
   r="37.952999"
   id="circle7"
   style="fill:#3d6373;fill-opacity:1" />
		<circle
   cx="134.774"
   cy="375.328"
   r="37.952999"
   id="circle8"
   style="fill:#3d6373;fill-opacity:1" />
	</g>
</g>
</svg>
