<?xml version="1.0" encoding="UTF-8" standalone="no"?>
<!-- Uploaded to: SVG Repo, www.svgrepo.com, Generator: SVG Repo Mixer Tools -->

<svg
   width="800px"
   height="800px"
   viewBox="0 0 24 24"
   fill="none"
   version="1.1"
   id="svg2"
   sodipodi:docname="light.svg"
   inkscape:version="1.4.2 (ebf0e940d0, 2025-05-08)"
   xmlns:inkscape="http://www.inkscape.org/namespaces/inkscape"
   xmlns:sodipodi="http://sodipodi.sourceforge.net/DTD/sodipodi-0.dtd"
   xmlns="http://www.w3.org/2000/svg"
   xmlns:svg="http://www.w3.org/2000/svg">
  <sodipodi:namedview
     id="namedview2"
     pagecolor="#ffffff"
     bordercolor="#000000"
     borderopacity="0.25"
     inkscape:showpageshadow="2"
     inkscape:pageopacity="0.0"
     inkscape:pagecheckerboard="0"
     inkscape:deskcolor="#d1d1d1"
     inkscape:zoom="0.10294547"
     inkscape:cx="208.84843"
     inkscape:cy="1520.2223"
     inkscape:window-width="2300"
     inkscape:window-height="1404"
     inkscape:window-x="0"
     inkscape:window-y="0"
     inkscape:window-maximized="1"
     inkscape:current-layer="svg2" />
  <g
     clip-path="url(#a)"
     fill="#000000"
     id="g1"
     style="fill:#3d6373;fill-opacity:1">
    <path
       d="M12 0a1 1 0 0 1 1 1v4a1 1 0 1 1-2 0V1a1 1 0 0 1 1-1ZM4.929 3.515a1 1 0 0 0-1.414 1.414l2.828 2.828a1 1 0 0 0 1.414-1.414L4.93 3.515ZM1 11a1 1 0 1 0 0 2h4a1 1 0 1 0 0-2H1ZM18 12a1 1 0 0 1 1-1h4a1 1 0 1 1 0 2h-4a1 1 0 0 1-1-1ZM17.657 16.243a1 1 0 0 0-1.414 1.414l2.828 2.828a1 1 0 1 0 1.414-1.414l-2.828-2.828ZM7.757 17.657a1 1 0 1 0-1.414-1.414L3.515 19.07a1 1 0 1 0 1.414 1.414l2.828-2.828ZM20.485 4.929a1 1 0 0 0-1.414-1.414l-2.828 2.828a1 1 0 1 0 1.414 1.414l2.828-2.828ZM13 19a1 1 0 1 0-2 0v4a1 1 0 1 0 2 0v-4ZM12 7a5 5 0 1 0 0 10 5 5 0 0 0 0-10Z"
       id="path1"
       style="fill:#3d6373;fill-opacity:1" />
  </g>
  <defs
     id="defs2">
    <clipPath
       id="a">
      <path
         fill="#ffffff"
         d="M0 0h24v24H0z"
         id="path2" />
    </clipPath>
  </defs>
</svg>
