<?xml version="1.0" encoding="UTF-8" standalone="no"?>
<!-- Uploaded to: SVG Repo, www.svgrepo.com, Generator: SVG Repo Mixer Tools -->

<svg
   width="800px"
   height="800px"
   viewBox="0 0 32 32"
   version="1.1"
   id="svg1"
   sodipodi:docname="moon.svg"
   inkscape:version="1.4.2 (ebf0e940d0, 2025-05-08)"
   xmlns:inkscape="http://www.inkscape.org/namespaces/inkscape"
   xmlns:sodipodi="http://sodipodi.sourceforge.net/DTD/sodipodi-0.dtd"
   xmlns="http://www.w3.org/2000/svg"
   xmlns:svg="http://www.w3.org/2000/svg">
  <defs
     id="defs1" />
  <sodipodi:namedview
     id="namedview1"
     pagecolor="#ffffff"
     bordercolor="#000000"
     borderopacity="0.25"
     inkscape:showpageshadow="2"
     inkscape:pageopacity="0.0"
     inkscape:pagecheckerboard="0"
     inkscape:deskcolor="#d1d1d1"
     inkscape:zoom="0.66833909"
     inkscape:cx="410.71966"
     inkscape:cy="757.84884"
     inkscape:window-width="2300"
     inkscape:window-height="1404"
     inkscape:window-x="0"
     inkscape:window-y="0"
     inkscape:window-maximized="1"
     inkscape:current-layer="svg1" />
  <g
     id="Lager_94"
     data-name="Lager 94"
     transform="translate(0)"
     style="fill:#3d6373;fill-opacity:1;stroke:none">
    <path
       id="Path_70"
       data-name="Path 70"
       d="M12.516,4.509A12,12,0,0,0,22.3,19.881,12.317,12.317,0,0,0,24,20a11.984,11.984,0,0,0,3.49-.514,12.1,12.1,0,0,1-9.963,8.421A12.679,12.679,0,0,1,16,28,12,12,0,0,1,12.516,4.509M16,0a16.5,16.5,0,0,0-2.212.15A16,16,0,0,0,16,32a16.526,16.526,0,0,0,2.01-.123A16.04,16.04,0,0,0,31.85,18.212,16.516,16.516,0,0,0,32,15.944,1.957,1.957,0,0,0,30,14a2.046,2.046,0,0,0-1.23.413A7.942,7.942,0,0,1,24,16a8.35,8.35,0,0,1-1.15-.08,7.995,7.995,0,0,1-5.264-12.7A2.064,2.064,0,0,0,16.056,0Z"
       fill="#040505"
       style="fill:#3d6373;fill-opacity:1;stroke:none" />
  </g>
</svg>
