<?xml version="1.0" encoding="UTF-8" standalone="no"?>
<svg
   width="299.12253"
   height="95.41539"
   viewBox="0 0 299.12252 95.415391"
   version="1.1"
   id="svg1"
   xmlns="http://www.w3.org/2000/svg"
   xmlns:svg="http://www.w3.org/2000/svg">
  <defs
     id="defs1" />
  <g
     id="Warstwa_x0020_1"
     transform="translate(-1047.0344,-1240.7632)">
    <g
       id="_2410680934192"
       transform="translate(1047.036,1240.744)"
       style="fill:#3d6373;fill-opacity:1">
      <path
         id="Path_2"
         data-name="Path 2"
         d="m 4967.082,1695.87 2.365,-0.353 h 0.109 v 17.044 a 14.265,14.265 0 0 0 0.408,3.67 5.36,5.36 0 0 0 1.141,2.365 v 0.027 a 4.376,4.376 0 0 0 2.012,1.278 9.308,9.308 0 0 0 3.072,0.435 9.468,9.468 0 0 0 3.1,-0.435 4.6,4.6 0 0 0 2.039,-1.278 v 0 a 6.012,6.012 0 0 0 1.143,-2.365 16.056,16.056 0 0 0 0.379,-3.7 v -16.688 h 0.083 l 2.417,-0.353 h 0.11 v 17.072 a 18.514,18.514 0 0 1 -0.462,4.73 6.857,6.857 0 0 1 -0.626,1.522 6.078,6.078 0 0 1 -0.925,1.277 6.84,6.84 0 0 1 -1.357,1.142 8.472,8.472 0 0 1 -1.713,0.87 v 0 a 12.184,12.184 0 0 1 -2.012,0.543 14.435,14.435 0 0 1 -4.323,0 12.134,12.134 0 0 1 -2.011,-0.543 v 0 a 8.489,8.489 0 0 1 -1.714,-0.87 v 0 a 6.257,6.257 0 0 1 -1.359,-1.142 7.385,7.385 0 0 1 -0.923,-1.277 7.938,7.938 0 0 1 -0.6,-1.468 11.146,11.146 0 0 1 -0.325,-1.985 c -0.083,-0.815 -0.109,-1.74 -0.109,-2.8 v -16.718 z m 23.568,26.587 v -19.41 l 0.11,-0.027 2.147,-0.245 0.111,-0.027 v 3.045 a 10.216,10.216 0 0 1 1.139,-1.278 8.1,8.1 0 0 1 1.468,-1.115 v 0 a 6.371,6.371 0 0 1 1.686,-0.652 6.754,6.754 0 0 1 1.849,-0.218 v 0 a 7.853,7.853 0 0 1 2.854,0.489 5.516,5.516 0 0 1 2.12,1.468 v 0 a 5.951,5.951 0 0 1 1.332,2.365 9.934,9.934 0 0 1 0.463,3.126 v 0 12.315 h -0.11 l -2.093,0.272 -0.108,0.027 v -11.526 0 a 11.272,11.272 0 0 0 -0.326,-2.882 5.425,5.425 0 0 0 -0.927,-2.039 v 0 a 4.377,4.377 0 0 0 -1.548,-1.2 5.921,5.921 0 0 0 -4.32,0 5.691,5.691 0 0 0 -1.795,1.278 v 0 a 5.18,5.18 0 0 0 -1.251,1.849 5.383,5.383 0 0 0 -0.434,2.2 v 12.016 h -0.082 l -2.149,0.272 -0.137,0.027 z m 20.035,-25.391 1.6,-1.957 0.083,-0.109 0.081,0.082 1.632,1.767 0.079,0.054 -0.079,0.082 -1.632,1.957 -0.081,0.109 -0.083,-0.109 -1.6,-1.74 -0.053,-0.055 z m 0.518,25.445 v -19.464 l 0.081,-0.027 2.2,-0.245 0.11,-0.027 v 19.546 h -0.083 l -2.2,0.3 -0.108,0.027 z m 13.4,0.163 -8.32,-19.246 -0.053,-0.109 0.108,-0.027 2.146,-0.761 0.083,-0.027 0.053,0.081 6.227,14.653 6.906,-14.653 0.079,-0.19 0.109,0.19 6.852,14.571 6.551,-14.571 0.055,-0.081 0.08,0.027 1.985,0.653 0.108,0.027 -0.053,0.109 -8.619,19.355 -0.081,0.217 -0.109,-0.217 -6.986,-15.087 -6.932,15.087 -0.109,0.217 z m 27.075,-8.536 12.34,-7.367 a 5.116,5.116 0 0 0 -0.814,-0.734 4.72,4.72 0 0 0 -1.088,-0.625 6.848,6.848 0 0 0 -1.277,-0.38 8.456,8.456 0 0 0 -1.468,-0.109 7.748,7.748 0 0 0 -7.2,4.7 7.688,7.688 0 0 0 -0.571,2.99 c 0,0.191 0.026,0.354 0.026,0.489 v 0.408 0 c 0,0.136 0.027,0.272 0.027,0.408 z m 15.3,5.872 a 12.238,12.238 0 0 1 -1.876,1.223 11.582,11.582 0 0 1 -1.875,0.87 v 0 a 11.512,11.512 0 0 1 -1.9,0.489 11.944,11.944 0 0 1 -1.958,0.19 10.591,10.591 0 0 1 -4.023,-0.734 9.776,9.776 0 0 1 -3.289,-2.174 9.911,9.911 0 0 1 -2.2,-3.262 10.83,10.83 0 0 1 -0.706,-3.942 10.276,10.276 0 0 1 0.734,-3.942 9.554,9.554 0 0 1 2.176,-3.235 9.729,9.729 0 0 1 3.316,-2.175 11,11 0 0 1 4,-0.707 11.393,11.393 0 0 1 2.583,0.3 7.985,7.985 0 0 1 2.229,0.9 7.468,7.468 0 0 1 1.848,1.468 8.1,8.1 0 0 1 1.386,1.984 l 0.055,0.082 -0.082,0.054 -14.9,8.78 a 7.157,7.157 0 0 0 1.2,1.713 6.834,6.834 0 0 0 1.6,1.332 7.154,7.154 0 0 0 1.93,0.843 7.881,7.881 0 0 0 2.147,0.272 v 0 a 7.819,7.819 0 0 0 1.767,-0.19 8.34,8.34 0 0 0 1.768,-0.571 12.447,12.447 0 0 0 1.875,-0.979 c 0.653,-0.408 1.358,-0.924 2.093,-1.495 l 0.163,-0.136 v 3.018 z m 4.241,2.447 v -19.41 l 0.081,-0.027 2.121,-0.245 0.135,-0.027 v 3.833 a 10.382,10.382 0 0 1 1.088,-1.6 7.826,7.826 0 0 1 1.576,-1.441 6.559,6.559 0 0 1 1.821,-0.843 7.711,7.711 0 0 1 2.12,-0.3 h 0.681 l -0.055,0.163 -0.9,2.093 -0.027,0.081 h -0.054 a 6.794,6.794 0 0 0 -2.774,0.843 5.774,5.774 0 0 0 -1.957,1.93 9.41,9.41 0 0 0 -1.142,3.126 20.977,20.977 0 0 0 -0.38,4.377 v 7.286 h -0.108 l -2.12,0.272 -0.109,0.027 z m 10.466,-2.746 1.6,-1.522 0.081,-0.081 0.055,0.081 a 9.632,9.632 0 0 0 1.087,1.033 6.438,6.438 0 0 0 1.168,0.707 v 0 a 5.347,5.347 0 0 0 1.252,0.462 7.406,7.406 0 0 0 1.358,0.136 4.681,4.681 0 0 0 1.576,-0.244 3.728,3.728 0 0 0 1.25,-0.707 v 0 a 2.865,2.865 0 0 0 0.816,-1.114 3.229,3.229 0 0 0 0.272,-1.387 3.427,3.427 0 0 0 -0.191,-1.223 2.278,2.278 0 0 0 -0.6,-0.9 3.611,3.611 0 0 0 -1.115,-0.734 9.674,9.674 0 0 0 -1.768,-0.571 v 0 a 21.144,21.144 0 0 1 -3.043,-0.979 7.39,7.39 0 0 1 -1.9,-1.169 v 0 a 3.927,3.927 0 0 1 -1.006,-1.495 v 0 a 5.737,5.737 0 0 1 -0.327,-1.984 5.137,5.137 0 0 1 0.436,-2.148 5.5,5.5 0 0 1 1.359,-1.767 v 0 a 6.5,6.5 0 0 1 2.065,-1.2 8.168,8.168 0 0 1 2.5,-0.381 v 0 a 8.114,8.114 0 0 1 1.631,0.136 7.216,7.216 0 0 1 1.5,0.408 v 0 a 8.166,8.166 0 0 1 1.385,0.68 8.416,8.416 0 0 1 1.306,0.952 l 0.053,0.055 -0.053,0.081 -1.334,1.767 -0.081,0.082 -0.082,-0.082 a 10.224,10.224 0 0 0 -1.087,-0.815 10.521,10.521 0 0 0 -1.086,-0.6 v 0 a 6.371,6.371 0 0 0 -1.087,-0.354 5.124,5.124 0 0 0 -1.088,-0.109 5.5,5.5 0 0 0 -1.575,0.218 3.682,3.682 0 0 0 -1.252,0.679 v 0 a 3.081,3.081 0 0 0 -0.788,1.005 3.542,3.542 0 0 0 -0.271,1.332 2.358,2.358 0 0 0 0.951,1.849 7.449,7.449 0 0 0 2.936,1.251 v 0 c 0.244,0.054 0.464,0.109 0.654,0.163 a 3.932,3.932 0 0 1 0.569,0.163 9.785,9.785 0 0 1 2.146,0.843 6.475,6.475 0 0 1 1.55,1.2 v 0 a 4.723,4.723 0 0 1 0.952,1.523 5.694,5.694 0 0 1 0.3,1.849 6.244,6.244 0 0 1 -0.461,2.392 v 0 a 5.815,5.815 0 0 1 -1.413,1.957 v 0 a 7.006,7.006 0 0 1 -2.148,1.305 7.913,7.913 0 0 1 -2.583,0.435 11.041,11.041 0 0 1 -1.93,-0.19 7.546,7.546 0 0 1 -1.713,-0.6 8.943,8.943 0 0 1 -1.548,-0.925 8.6,8.6 0 0 1 -1.305,-1.332 l -0.055,-0.055 z m 20.361,9.6 -2.121,-0.571 -0.135,-0.027 0.055,-0.11 4.838,-9.65 -8.672,-15.577 -0.082,-0.108 0.136,-0.055 2.093,-0.6 0.082,-0.027 0.027,0.082 7.666,13.81 6.8,-13.81 0.054,-0.082 0.083,0.027 2.039,0.571 0.136,0.027 -0.053,0.109 -12.833,25.934 -0.027,0.082 z m 23.378,-7.014 c -0.161,0.054 -0.352,0.082 -0.543,0.136 -0.162,0.027 -0.353,0.054 -0.516,0.081 -0.191,0 -0.354,0.028 -0.517,0.028 a 2.857,2.857 0 0 1 -0.461,0.027 6.78,6.78 0 0 1 -2.5,-0.407 3.523,3.523 0 0 1 -1.661,-1.251 5.553,5.553 0 0 1 -0.923,-2.311 19.519,19.519 0 0 1 -0.3,-3.642 v -9.658 h -2.8 l 0.026,-0.136 0.625,-2.067 0.028,-0.081 h 2.12 v -4.486 l 0.055,-0.027 2.122,-1.278 0.162,-0.109 v 5.9 h 5 v 2.284 h -5 v 9.922 0 a 13.432,13.432 0 0 0 0.191,2.555 3.557,3.557 0 0 0 0.516,1.5 2.147,2.147 0 0 0 0.954,0.707 4,4 0 0 0 1.494,0.244 2.06,2.06 0 0 0 0.407,-0.027 c 0.137,0 0.3,-0.027 0.436,-0.027 0.162,-0.027 0.326,-0.054 0.516,-0.082 a 4.91,4.91 0 0 0 0.544,-0.109 l 0.109,-0.027 v 2.338 z m 4.975,-8.155 12.342,-7.367 a 5.17,5.17 0 0 0 -0.815,-0.734 4.673,4.673 0 0 0 -1.089,-0.625 6.549,6.549 0 0 0 -1.3,-0.38 7.954,7.954 0 0 0 -1.44,-0.109 7.858,7.858 0 0 0 -3.02,0.544 7.549,7.549 0 0 0 -2.5,1.685 7.463,7.463 0 0 0 -1.685,2.474 7.724,7.724 0 0 0 -0.571,2.99 v 0.489 a 2.378,2.378 0 0 1 0.027,0.408 c 0,0.136 0.028,0.272 0.028,0.408 v 0 a 0.615,0.615 0 0 0 0.03,0.213 z m 15.306,5.872 a 12.265,12.265 0 0 1 -1.876,1.223 11.61,11.61 0 0 1 -1.876,0.87 v 0 a 11.5,11.5 0 0 1 -1.9,0.489 11.93,11.93 0 0 1 -1.956,0.19 10.829,10.829 0 0 1 -4.051,-0.734 10.153,10.153 0 0 1 -5.465,-5.437 10.276,10.276 0 0 1 -0.707,-3.942 10.8,10.8 0 0 1 0.707,-3.942 9.272,9.272 0 0 1 2.2,-3.235 9.922,9.922 0 0 1 3.29,-2.175 11.263,11.263 0 0 1 4.025,-0.707 v 0 a 11.387,11.387 0 0 1 2.582,0.3 7.979,7.979 0 0 1 2.229,0.9 v 0 a 8.273,8.273 0 0 1 3.233,3.452 l 0.055,0.082 -0.109,0.054 -14.869,8.78 a 7.93,7.93 0 0 0 1.169,1.713 7.572,7.572 0 0 0 1.631,1.332 7.12,7.12 0 0 0 1.93,0.843 7.872,7.872 0 0 0 2.148,0.272 v 0 a 7.974,7.974 0 0 0 1.765,-0.19 8.88,8.88 0 0 0 1.767,-0.571 12.408,12.408 0 0 0 1.876,-0.979 c 0.652,-0.408 1.36,-0.924 2.093,-1.495 l 0.163,-0.136 v 3.018 z m 12.5,2.284 c -0.189,0.054 -0.38,0.082 -0.544,0.136 -0.19,0.027 -0.378,0.054 -0.542,0.081 -0.164,0 -0.354,0.028 -0.518,0.028 a 2.677,2.677 0 0 1 -0.461,0.027 6.885,6.885 0 0 1 -2.5,-0.407 v 0 a 3.656,3.656 0 0 1 -1.66,-1.251 5.93,5.93 0 0 1 -0.924,-2.311 19.529,19.529 0 0 1 -0.3,-3.642 v -9.659 h -2.8 l 0.054,-0.136 0.6,-2.067 0.028,-0.081 h 2.12 v -4.486 l 0.055,-0.027 2.148,-1.278 0.135,-0.109 v 5.9 h 5 v 2.284 h -5 v 9.922 0 a 16.209,16.209 0 0 0 0.19,2.555 3.956,3.956 0 0 0 0.518,1.5 2.3,2.3 0 0 0 0.951,0.707 4.1,4.1 0 0 0 1.495,0.244 2.072,2.072 0 0 0 0.408,-0.027 c 0.163,0 0.3,-0.027 0.463,-0.027 l 0.488,-0.082 a 4.91,4.91 0 0 0 0.544,-0.109 l 0.136,-0.027 v 2.338 z"
         transform="translate(-4859.168,-1682.76)"
         fill="#fff"
         style="fill:#3d6373;fill-opacity:1" />
      <path
         id="Path_3"
         data-name="Path 3"
         d="m 4976.2,3262.809 -11.144,-26.8 -0.056,-0.137 0.135,-0.027 2.258,-0.435 0.081,-0.028 0.027,0.082 8.971,21.639 3.97,-9.623 -4.731,-11.471 -0.055,-0.137 0.136,-0.027 1.985,-0.435 0.082,-0.028 0.028,0.082 3.779,9.134 3.75,-9.134 0.055,-0.082 0.081,0.028 1.985,0.435 0.107,0.027 -0.025,0.137 -4.786,11.471 4.023,9.623 8.944,-21.639 0.028,-0.082 0.081,0.028 2.284,0.435 0.11,0.027 -0.028,0.137 -11.146,26.8 -0.109,0.218 -0.082,-0.218 -5.272,-12.45 -5.274,12.45 -0.109,0.218 z m 24.113,-0.353 v -19.437 h 0.083 l 2.147,-0.271 h 0.109 v 3.833 a 12.115,12.115 0 0 1 1.086,-1.631 7.68,7.68 0 0 1 1.578,-1.414 6.328,6.328 0 0 1 1.848,-0.842 7.321,7.321 0 0 1 2.092,-0.3 h 0.679 l -0.053,0.136 -0.9,2.12 -0.024,0.054 h -0.056 a 6.8,6.8 0 0 0 -2.772,0.87 5.774,5.774 0 0 0 -1.958,1.93 9.413,9.413 0 0 0 -1.142,3.127 22.711,22.711 0 0 0 -0.379,4.35 v 7.312 h -0.109 l -2.122,0.272 h -0.109 z m 13.62,-9.814 a 7.886,7.886 0 0 0 4.812,7.232 8.194,8.194 0 0 0 6.008,0 7.931,7.931 0 0 0 2.5,-1.712 7.733,7.733 0 0 0 1.713,-2.528 7.6,7.6 0 0 0 0.57,-2.991 7.78,7.78 0 0 0 -0.57,-2.989 7.608,7.608 0 0 0 -1.713,-2.5 v 0 a 7.914,7.914 0 0 0 -2.5,-1.712 v 0 a 8.181,8.181 0 0 0 -6.008,0 7.712,7.712 0 0 0 -2.528,1.712 7.614,7.614 0 0 0 -1.712,2.5 7.807,7.807 0 0 0 -0.573,2.988 z m -2.392,0 a 10.244,10.244 0 0 1 0.707,-3.914 v 0 a 9.482,9.482 0 0 1 2.2,-3.234 9.9,9.9 0 0 1 3.289,-2.175 10.654,10.654 0 0 1 4,-0.707 10.455,10.455 0 0 1 4,0.707 9.629,9.629 0 0 1 3.289,2.175 9.81,9.81 0 0 1 2.175,3.234 10.144,10.144 0 0 1 0.733,3.914 10.425,10.425 0 0 1 -0.733,3.969 9.824,9.824 0 0 1 -2.175,3.235 9.267,9.267 0 0 1 -3.289,2.175 11.175,11.175 0 0 1 -7.966,0 9.64,9.64 0 0 1 -3.289,-2.175 9.882,9.882 0 0 1 -2.2,-3.262 10.3,10.3 0 0 1 -0.741,-3.942 z m 41.348,7.748 a 13.07,13.07 0 0 1 -3.48,1.767 v 0 a 11.256,11.256 0 0 1 -1.847,0.435 10.826,10.826 0 0 1 -1.848,0.164 10.465,10.465 0 0 1 -4,-0.734 9.637,9.637 0 0 1 -3.289,-2.175 9.87,9.87 0 0 1 -2.2,-3.262 10.954,10.954 0 0 1 0,-7.884 9.842,9.842 0 0 1 5.465,-5.382 10.694,10.694 0 0 1 4.024,-0.707 15.205,15.205 0 0 1 1.956,0.109 12.482,12.482 0 0 1 1.794,0.407 9.929,9.929 0 0 1 1.685,0.681 12.852,12.852 0 0 1 1.633,0.978 l 0.081,0.054 -0.056,0.109 -1.44,1.712 -0.055,0.054 -0.081,-0.054 a 14.482,14.482 0 0 0 -1.359,-0.788 8.124,8.124 0 0 0 -1.359,-0.571 v 0 a 5.843,5.843 0 0 0 -1.359,-0.327 8.382,8.382 0 0 0 -1.439,-0.108 7.851,7.851 0 0 0 -3.02,0.572 8.328,8.328 0 0 0 -2.526,1.712 7.7,7.7 0 0 0 -1.713,2.528 7.6,7.6 0 0 0 -0.57,2.963 v 0 a 7.739,7.739 0 0 0 0.57,2.991 8,8 0 0 0 1.713,2.528 8.347,8.347 0 0 0 2.526,1.712 7.873,7.873 0 0 0 3.02,0.571 8.305,8.305 0 0 0 1.385,-0.136 6.824,6.824 0 0 0 1.414,-0.381 9.611,9.611 0 0 0 1.441,-0.6 10.621,10.621 0 0 0 1.386,-0.843 l 0.081,-0.054 0.081,0.082 1.415,1.739 0.054,0.081 z m 5.056,2.094 v -12.044 l -1.957,1.386 -0.164,0.11 v -2.283 l 0.054,-0.028 2.066,-1.469 v -12.8 h 0.081 l 2.148,-0.3 0.136,-0.027 v 11.825 l 1.93,-1.413 0.165,-0.11 v 2.284 l -0.055,0.027 -2.039,1.468 v 13.157 l -0.108,0.027 -2.148,0.3 -0.108,0.027 z m 9.515,-6.85 a 4.765,4.765 0 0 0 0.354,1.9 4.419,4.419 0 0 0 1.033,1.549 4.508,4.508 0 0 0 1.576,1.033 5.156,5.156 0 0 0 1.985,0.353 5.423,5.423 0 0 0 1.931,-0.326 4.626,4.626 0 0 0 1.521,-1.005 4.462,4.462 0 0 0 0.952,-1.549 5.938,5.938 0 0 0 0,-3.887 4.154,4.154 0 0 0 -0.978,-1.549 3.934,3.934 0 0 0 -1.495,-1.006 5.286,5.286 0 0 0 -1.9,-0.326 5.744,5.744 0 0 0 -1.985,0.326 4.775,4.775 0 0 0 -1.6,1.033 4.416,4.416 0 0 0 -1.033,1.549 4.86,4.86 0 0 0 -0.363,1.904 z m 9.679,4.919 a 6.761,6.761 0 0 1 -0.925,0.843 6.985,6.985 0 0 1 -1.224,0.76 7.483,7.483 0 0 1 -1.386,0.462 8.387,8.387 0 0 1 -1.468,0.136 6.812,6.812 0 0 1 -5.03,-2.066 7.191,7.191 0 0 1 -1.577,-2.311 7.5,7.5 0 0 1 0,-5.465 7.193,7.193 0 0 1 1.577,-2.311 7.409,7.409 0 0 1 2.284,-1.549 7.05,7.05 0 0 1 2.746,-0.516 6.34,6.34 0 0 1 1.442,0.135 9.126,9.126 0 0 1 1.385,0.435 v 0 a 8.449,8.449 0 0 1 1.279,0.707 v 0 a 4.956,4.956 0 0 1 0.9,0.788 v -2.146 a 6.035,6.035 0 0 0 -0.219,-1.686 2.684,2.684 0 0 0 -0.734,-1.169 v 0 a 2.975,2.975 0 0 0 -1.223,-0.679 5.957,5.957 0 0 0 -1.793,-0.244 10.456,10.456 0 0 0 -1.28,0.081 c -0.433,0.082 -0.9,0.163 -1.385,0.272 -0.461,0.136 -0.978,0.272 -1.522,0.462 -0.544,0.19 -1.142,0.407 -1.739,0.679 l -0.217,0.082 0.08,-0.218 0.843,-2.474 v -0.054 l 0.055,-0.027 c 0.463,-0.163 0.952,-0.3 1.387,-0.408 a 12.886,12.886 0 0 1 1.387,-0.326 v 0 c 0.435,-0.082 0.9,-0.136 1.333,-0.191 0.434,-0.026 0.87,-0.054 1.276,-0.054 2.122,0 3.67,0.49 4.649,1.5 v 0 a 4.645,4.645 0 0 1 1.115,1.93 9.083,9.083 0 0 1 0.354,2.745 v 13.593 l -0.081,0.027 -2.148,0.463 -0.136,0.027 v -2.23 z m 13.374,2.093 -8.319,-19.219 -0.054,-0.109 0.108,-0.027 2.147,-0.789 0.109,-0.027 0.028,0.109 6.225,14.653 6.9,-14.68 0.082,-0.189 0.109,0.189 6.877,14.6 6.553,-14.6 0.026,-0.081 0.081,0.027 1.985,0.679 0.109,0.028 -0.027,0.109 -8.646,19.327 -0.081,0.218 -0.108,-0.218 -6.987,-15.087 -6.932,15.087 -0.108,0.218 z m 24.468,-2.935 1.6,-1.55 0.082,-0.055 0.083,0.082 a 7.291,7.291 0 0 0 1.059,1.006 5.967,5.967 0 0 0 1.168,0.734 v 0 a 5.454,5.454 0 0 0 1.277,0.435 5.52,5.52 0 0 0 1.361,0.163 4.936,4.936 0 0 0 1.577,-0.244 3.9,3.9 0 0 0 1.249,-0.735 v 0 a 3.49,3.49 0 0 0 0.817,-1.087 3.958,3.958 0 0 0 0.271,-1.387 3.356,3.356 0 0 0 -0.22,-1.224 2.489,2.489 0 0 0 -0.57,-0.924 4.367,4.367 0 0 0 -1.14,-0.706 11.1,11.1 0 0 0 -1.769,-0.6 v 0 a 19.708,19.708 0 0 1 -3.016,-0.979 6.352,6.352 0 0 1 -1.931,-1.168 4.157,4.157 0 0 1 -1.005,-1.5 5.488,5.488 0 0 1 -0.326,-1.957 5.082,5.082 0 0 1 0.462,-2.147 5.247,5.247 0 0 1 1.359,-1.767 v 0 a 5.941,5.941 0 0 1 2.039,-1.2 7.479,7.479 0 0 1 2.528,-0.408 v 0 a 10.249,10.249 0 0 1 1.6,0.137 13.68,13.68 0 0 1 1.495,0.407 v 0 a 9.647,9.647 0 0 1 1.413,0.68 10.238,10.238 0 0 1 1.278,0.952 l 0.082,0.054 -0.055,0.082 -1.359,1.767 -0.054,0.082 -0.108,-0.054 a 6.932,6.932 0 0 0 -1.06,-0.816 7.377,7.377 0 0 0 -1.116,-0.6 v 0 a 5.646,5.646 0 0 0 -1.087,-0.354 4.845,4.845 0 0 0 -2.664,0.109 3.331,3.331 0 0 0 -1.224,0.652 v 0 a 2.969,2.969 0 0 0 -1.06,2.338 2.245,2.245 0 0 0 0.951,1.849 7.106,7.106 0 0 0 2.909,1.278 c 0.272,0.054 0.49,0.109 0.681,0.163 v 0 c 0.217,0.054 0.407,0.108 0.571,0.135 v 0 a 10.447,10.447 0 0 1 2.147,0.87 v 0 a 5.882,5.882 0 0 1 1.549,1.2 v 0 a 4.564,4.564 0 0 1 0.924,1.523 4.915,4.915 0 0 1 0.3,1.822 5.925,5.925 0 0 1 -0.463,2.419 v 0 a 6.462,6.462 0 0 1 -1.414,1.957 v 0 a 6.082,6.082 0 0 1 -2.122,1.278 7.321,7.321 0 0 1 -2.609,0.435 8.7,8.7 0 0 1 -1.9,-0.191 7.264,7.264 0 0 1 -1.739,-0.571 6.774,6.774 0 0 1 -1.522,-0.951 v 0 a 7.359,7.359 0 0 1 -1.3,-1.3 l -0.054,-0.082 z m 20.089,-7.314 8.263,-9.813 0.054,-0.054 0.082,0.054 1.793,1.06 0.109,0.055 -0.082,0.109 -7.339,8.753 8.373,8.672 0.053,0.082 -0.08,0.082 -1.659,1.25 -0.055,0.055 -0.081,-0.055 -9.433,-9.7 v 9.324 l -0.082,0.027 -2.149,0.38 -0.106,0.028 v -27.375 l 0.08,-0.027 2.147,-0.245 0.11,-0.027 v 17.368 z m 14.053,-15.359 1.6,-1.957 0.082,-0.083 0.081,0.083 1.657,1.767 0.056,0.054 -0.056,0.082 -1.657,1.958 -0.055,0.081 -0.081,-0.081 -1.632,-1.767 -0.055,-0.054 z m 0.516,25.445 v -19.464 h 0.111 l 2.173,-0.271 h 0.109 v 19.518 l -0.08,0.027 -2.176,0.3 -0.137,0.027 z"
         transform="translate(-4857.222,-3180.895)"
         fill="#fff"
         style="fill:#3d6373;fill-opacity:1" />
      <g
         id="Group_2"
         data-name="Group 2"
         style="fill:#3d6373;fill-opacity:1">
        <path
           id="Path_4"
           data-name="Path 4"
           d="m 1521.249,1736.96 c 0.6,-1.5 1.3,-2.474 3.751,-2.719 l 0.816,-0.081 1.386,0.326 1.685,0.408 c 0.9,-1.142 1.848,-2.039 3.724,-1.685 l 1.631,0.516 a 10.812,10.812 0 0 0 4.974,1.2 l -1.495,2.012 a 9.912,9.912 0 0 0 -1.169,2.555 6.375,6.375 0 0 0 -0.517,2.175 13.545,13.545 0 0 0 0.924,6.416 13.278,13.278 0 0 0 4.486,5.491 l -0.244,8.645 c -4.894,1.5 -9.9,-1.631 -10.14,-1.522 -2.691,1.739 -8.4,1.522 -9.677,1.386 l -0.245,-8.509 c 1.495,0.028 5.219,-4.132 5.953,-5.709 a 12.249,12.249 0 0 0 1.087,-6.768 l -1.359,-1.115 c -2.229,-1.06 -2.719,-1.739 -2.61,-2.555 l 0.19,0.136 c 2.8,1.332 3.317,0.516 2.692,-0.028 -1.658,-0.625 -2.447,-1.5 -5.845,-0.38 z m 5.845,13.239 c 0.6,-0.952 0.462,-1.06 1.413,-0.245 l 0.924,0.925 0.707,-0.925 c 0.571,-1.522 0.924,-0.571 1.631,0.109 l 0.571,0.6 0.816,-0.924 c 0.244,-0.354 0.462,-0.707 0.815,0 0.136,0 0.6,1.033 0.952,1.033 0.218,0.109 0.462,-0.816 0.68,-1.033 0.353,-0.489 0.462,-0.707 0.815,-0.489 0.6,0.6 0.353,1.169 1.169,1.876 0.951,0.924 2.447,2.8 3.4,3.969 l 0.109,0.925 a 14.451,14.451 0 0 1 -2.093,4.078 5.164,5.164 0 0 1 -0.952,-1.74 c -0.571,0.816 -0.816,1.523 -1.386,1.876 l -1.278,-1.414 -1.278,1.414 c -0.951,-0.6 -0.951,-0.951 -1.522,-1.876 l -0.6,0.462 -1.033,1.414 -1.875,-1.767 a 4.508,4.508 0 0 1 -1.169,2.229 l -1.277,-1.414 -1.414,1.767 -0.679,-0.816 -1.305,-1.876 -1.386,-3.044 1.74,-1.387 0.816,-1.06 1.522,-1.169 c 0.354,-0.815 0.924,-1.033 1.169,-1.495 z m -0.816,1.495 c 0,-0.326 1.413,-1.631 1.522,-1.495 0.571,0.571 1.278,1.278 1.522,1.495 a 5.685,5.685 0 0 1 -1.631,2.582 c -0.6,-0.6 -1.658,-1.767 -1.413,-2.582 z m -1.984,2.229 c 0.108,-0.354 1.278,-1.522 1.414,-1.413 0.571,0.6 1.386,1.767 1.631,1.985 a 3.208,3.208 0 0 1 -1.631,2.12 c -0.49,-0.6 -1.631,-1.875 -1.414,-2.692 z m -1.876,1.631 c 0,-0.353 1.305,-1.169 1.414,-1.06 a 8.3,8.3 0 0 1 1.169,1.984 17.271,17.271 0 0 1 -1.414,1.631 c -0.571,-0.679 -1.386,-1.74 -1.169,-2.555 z m 1.659,2.691 c 0.109,-0.353 1.277,-1.522 1.386,-1.414 0.816,0.816 0.571,0.816 1.06,1.632 0.217,0.6 -0.707,1.169 -1.3,1.876 -0.462,-0.707 -1.386,-1.278 -1.142,-2.094 z m 15.957,-0.6 a 3.808,3.808 0 0 1 -1.033,1.767 c -0.245,-0.135 -0.952,-1.522 -0.816,-1.767 a 6.8,6.8 0 0 1 0.68,-1.278 13.607,13.607 0 0 1 1.169,1.278 z m -0.109,-0.571 c 0.354,-0.353 0.924,-0.952 0.707,-1.414 a 4.074,4.074 0 0 0 -0.951,-1.169 c -0.109,0.245 -0.326,0.489 -0.68,1.169 0,0.136 -0.462,0.245 0.924,1.414 z m -2.093,0.571 c -0.354,0.461 -0.816,1.631 -1.169,1.876 -0.463,-0.707 -1.06,-1.169 -1.169,-1.631 a 7.258,7.258 0 0 1 1.278,-2.093 4.109,4.109 0 0 1 1.06,1.849 z m -11.445,-0.571 c 0,-0.353 1.169,-1.278 1.3,-1.169 0.571,0.571 1.033,1.278 1.387,1.522 a 4.17,4.17 0 0 1 -1.278,2.556 c -0.6,-0.571 -1.631,-2.093 -1.414,-2.909 z m 1.414,-2.337 a 5.476,5.476 0 0 1 1.631,-1.631 c 0.462,0.571 1.033,1.387 1.278,1.739 a 3.546,3.546 0 0 1 -1.386,2.229 c -0.489,-0.707 -1.767,-1.523 -1.522,-2.337 z m 3.153,0.108 c 0.109,-0.218 1.169,-1.848 1.278,-1.739 0.462,0.571 1.033,1.522 1.278,1.739 a 3.117,3.117 0 0 1 -1.169,2.121 c -0.463,-0.6 -1.522,-1.414 -1.387,-2.121 z m -1.522,3.154 a 6.845,6.845 0 0 1 1.522,-1.984 c 0.462,0.462 0.816,1.413 1.169,1.631 a 3.914,3.914 0 0 1 -1.169,2.12 c -0.6,-0.6 -1.3,-1.06 -1.522,-1.767 z m 3.154,-0.462 c 0,-0.354 1.033,-1.74 1.169,-1.631 a 23.524,23.524 0 0 1 1.5,1.985 c -0.109,0.924 -0.68,1.169 -1.278,1.631 -0.462,-0.6 -1.631,-1.278 -1.386,-1.985 z m 1.277,-2.692 c 0.109,-0.218 1.169,-1.984 1.278,-1.848 0.462,0.57 1.06,1.63 1.278,1.848 a 5.6,5.6 0 0 1 -1.169,2.229 c -0.463,-0.6 -1.5,-1.414 -1.387,-2.229 z m 2.909,-0.218 a 7.361,7.361 0 0 1 1.169,-2.12 13.7,13.7 0 0 1 1.414,1.767 11.741,11.741 0 0 1 -1.169,2.338 c -0.462,-0.6 -1.631,-1.169 -1.413,-1.985 z m -7.231,-2.936 a 5.813,5.813 0 0 1 1.414,-1.495 7.459,7.459 0 0 0 1.169,1.386 4.652,4.652 0 0 1 -1.169,2.583 c -0.489,-0.6 -1.522,-1.659 -1.414,-2.474 z m 5.492,0 a 4.186,4.186 0 0 1 1.169,-1.495 c 0.463,0.571 1.033,1.386 1.278,1.63 a 3.891,3.891 0 0 1 -1.06,2.339 c -0.463,-0.6 -1.631,-1.659 -1.386,-2.474 z m -2.8,0 c 0,-0.217 1.278,-1.495 1.386,-1.386 0.49,0.571 1.06,1.06 1.305,1.386 a 5.8,5.8 0 0 1 -1.305,2.691 c -0.462,-0.706 -1.631,-1.739 -1.386,-2.691 z m -0.408,-16.392 c 0.68,0.19 1.277,0.544 1.712,0.6 a 1.517,1.517 0 0 0 -0.788,0.435 c -0.734,0.626 -1.794,0.164 -2.256,-0.081 -0.165,-0.3 0.298,-0.953 1.331,-0.953 z m -2.392,39.037 c 0,0.815 1.169,1.848 1.522,2.093 a 5.1,5.1 0 0 0 1.849,-2.338 l -1.74,-1.387 z m 1.876,-3.507 a 5.061,5.061 0 0 0 1.278,2.229 l 0.679,0.68 a 9.891,9.891 0 0 0 1.658,-3.018 l -1.767,-1.278 z m -4.1,0.245 a 7.3,7.3 0 0 0 1.169,2.338 l 0.707,0.571 a 9.653,9.653 0 0 0 1.74,-3.045 l -1.74,-1.277 z m 1.06,10.955 a 22.173,22.173 0 0 1 2.8,-0.109 12.733,12.733 0 0 1 2.447,0.218 c 0.815,-0.462 -0.571,-1.033 -2.8,-1.169 -2.447,0.244 -2.447,1.06 -2.447,1.06 z m -0.462,1.875 a 15.889,15.889 0 0 0 3.615,0.109 c 2.8,-0.109 3.153,-0.354 3.153,-0.354 1.169,0.816 -0.815,2.093 -3.506,2.338 -3.262,-0.6 -3.262,-2.094 -3.262,-2.094 z m 9.215,-15.277 a 23.688,23.688 0 0 1 -6.062,8.971 c -3.262,-3.154 -4.92,-5.953 -5.736,-8.754 0.354,-0.353 1.522,1.169 2.338,1.06 0.462,0 1.06,-1.169 1.522,-1.277 0.707,0 1.278,1.631 1.875,1.386 0.68,-0.245 1.632,-1.278 2.093,-1.386 0.571,-0.136 1.06,1.033 1.631,1.033 0.925,0 1.386,-1.033 2.338,-1.033 z m 3.018,22.617 c 0.136,0.245 -3.969,-1.278 -5.709,-3.969 0.816,4.431 1.875,4.213 5.6,5.708 z m -8.4,-4.322 0.135,10.847 c 3.48,-4.893 -0.135,-11.662 -0.135,-10.847 z m -7.232,6.307 c 0.136,-0.6 3.4,-1.875 3.969,-5.845 0.951,2.447 0.462,5.736 -4.322,7.367 z m -3.371,-27.538 a 98.37,98.37 0 0 0 20.171,0.136 l -0.218,3.724 c -1.767,1.06 -0.952,2.555 0,3.724 l 0.218,7.693 a 7.817,7.817 0 0 1 -2.094,4.322 c -2.093,-2.2 -2.909,-4.078 -2.446,-5.6 a 4.929,4.929 0 0 0 -0.245,-3.833 c -1.849,0.925 -2.311,4.432 -0.925,5.818 a 4.566,4.566 0 0 1 -0.244,4.431 c 1.3,2.583 3.044,3.507 5.845,4.676 v 4.54 l -2.093,0.354 a 8.8,8.8 0 0 1 -4.432,-1.523 c -0.951,3.262 -0.707,4.893 -3.153,7.122 -2.229,-1.631 -3.86,-3.724 -3.86,-6.877 -1.277,1.631 -4.186,1.848 -5.953,1.278 l 0.136,-4.676 c 2.664,-0.679 4.649,-1.984 5,-4.893 -2.2,-1.278 -1.522,-3.262 -0.108,-5.138 0.924,-3.371 0.815,-3.942 -1.279,-5.247 l -0.707,2.121 v 2.2 l 0.245,1.413 -0.353,2.446 -1.169,1.5 -1.767,-2.2 -0.326,-3.507 -0.136,-5.818 c 2.229,-2.12 1.277,-2.8 -0.109,-5.246 z m 24.847,13.076 c 1.169,0.571 2.338,1.876 3.154,4.785 l 1.277,0.706 c -0.353,2.093 -3.86,0.462 -4.322,-1.06 z m -29.169,-0.109 c -1.169,0.462 -2.338,1.74 -3.153,4.784 l -1.278,0.68 c 0.353,1.984 3.86,0.353 4.322,-1.033 z m 29.523,11.064 c 1.631,0.245 3.018,-0.571 4.323,-1.032 0.109,0 0.217,-0.136 0.326,-0.136 0.354,0 0.489,0 0.136,1.169 a 6.062,6.062 0 0 1 -4.785,3.969 z m -30.691,0.707 c -1.631,0.244 -3.153,-0.6 -4.431,-1.061 -0.109,0 -0.218,-0.108 -0.354,-0.108 -0.462,0 -0.571,0 -0.218,1.169 a 6.392,6.392 0 0 0 5,3.969 z m 24.956,-44.556 a 9.723,9.723 0 0 0 5.492,0.109 c 0.462,0 0.6,-0.354 0.462,0.353 -0.462,2.093 -5.355,3.044 -6.171,-0.245 -0.109,-0.462 -0.109,-0.218 0.218,-0.218 z m 1.876,3.018 c -1.985,-0.462 -3.371,-1.631 -3.371,-3.616 0,-0.462 -0.136,-0.462 0.353,-0.326 a 6.765,6.765 0 0 0 3.371,0.218 3.588,3.588 0 0 0 0,-1.522 c -0.462,-0.68 -1.169,-1.5 -0.815,-1.74 0,-0.109 0.571,0 1.169,0 0.217,0 0.108,-2.093 0.108,-1.984 0,0.109 -0.707,-0.571 -0.707,-0.924 0,-0.245 1.658,-0.462 2.121,0 0.218,0.218 -0.6,0.816 -0.6,1.033 a 3.674,3.674 0 0 0 0.245,1.875 3.266,3.266 0 0 1 1.033,0 c 0.245,0.245 -0.218,1.06 -0.679,1.631 a 1.376,1.376 0 0 0 -0.354,1.631 6.381,6.381 0 0 0 3.262,-0.218 c 0.245,-0.136 0.462,0 0.462,0.218 -0.217,1.631 -1.386,3.045 -3.724,3.724 v 46.676 l 0.571,0.354 c 1.984,1.169 1.876,2.554 -0.353,3.37 l -0.68,0.354 c 1.169,3.018 -2.447,3.262 -1.413,0.109 l -0.708,-0.462 c -2.092,-1.278 -2.2,-2.446 -0.217,-3.262 l 0.925,-0.353 z m -26.234,-3.262 a 11.067,11.067 0 0 0 5.464,0.245 c 0.49,-0.109 0.6,-0.462 0.49,0.218 -0.49,2.12 -5.383,3.044 -6.2,-0.218 -0.109,-0.353 -0.109,-0.245 0.245,-0.109 z m 1.849,3.045 c -1.984,-0.462 -3.371,-1.631 -3.371,-3.615 0,-0.462 -0.109,-0.462 0.354,-0.353 a 6.793,6.793 0 0 0 3.37,0.245 2.849,2.849 0 0 0 0,-1.522 c -0.462,-0.6 -1.169,-1.523 -0.815,-1.767 0,-0.109 0.6,0 1.169,0 0.245,0 0.109,-2.093 0.109,-1.984 0,0.136 -0.68,-0.571 -0.68,-0.924 a 2.223,2.223 0 0 1 2.093,0 c 0.217,0.245 -0.6,0.816 -0.6,1.06 a 3.552,3.552 0 0 0 0.244,1.849 3.453,3.453 0 0 1 1.06,0 c 0.218,0.245 -0.245,1.06 -0.815,1.658 a 1.478,1.478 0 0 0 -0.245,1.631 6.353,6.353 0 0 0 3.262,-0.245 c 0.245,-0.109 0.462,0 0.462,0.353 -0.217,1.522 -1.386,2.909 -3.724,3.615 v 46.649 l 0.571,0.462 c 1.984,1.061 1.876,2.582 -0.326,3.262 l -0.707,0.354 c 1.169,3.044 -2.447,3.262 -1.414,0.136 l -0.68,-0.49 c -2.12,-1.278 -2.228,-2.311 -0.353,-3.262 l 1.033,-0.354 z m -12.016,30.8 c 0.136,0.109 3.969,-0.707 4.105,-2.8 0.326,-2.691 -0.354,-5.138 2.311,-7.231 4.92,0.679 1.06,6.171 -0.218,7.693 -2.691,2.691 -2.229,2.691 -5.953,2.8 0,0 -0.353,-0.6 -0.245,-0.462 z m -3.371,-7.014 c 2.555,-1.278 3.371,-1.74 4.077,-4.893 0.245,-3.371 2.909,-4.431 3.045,0 -1.522,4.893 -3.262,6.171 -8.4,5.491 0,0 1.033,-0.49 1.278,-0.6 z m -3.724,-7.448 1.387,-0.245 c 3.262,-2.338 2.229,-6.416 3.507,-7.34 1.169,-0.135 1.631,0.353 1.386,1.5 l -0.108,1.876 -1.06,2.691 c -2.446,3.507 -5.11,1.74 -5.11,1.522 z m 17.724,-3.969 c 0,1.277 -9.324,-3.263 -7.829,-13.185 5.383,0.109 3.507,-3.506 0.353,-1.63 0.462,-1.631 0.6,-4.214 -0.924,-3.507 a 3.128,3.128 0 0 0 -0.108,3.616 c -1.631,-0.816 -2.691,-0.924 -3.045,-0.707 -0.353,1.169 0,1.767 2.691,2.229 -0.952,7.938 1.386,14.218 8.862,16.91 l 0.218,9.677 c -3.018,5.845 -8.971,12.478 -14.218,3.725 3.371,0.814 5.844,-0.219 6.416,-2.91 l 0.571,-3.37 -1.74,2.338 c -3.507,1.277 -5.953,1.74 -8.862,-2.582 l 2.094,-0.11 1.522,-0.6 a 6.044,6.044 0 0 0 3.153,-5.708 c -1.631,1.631 -6.769,3.969 -8.753,-0.815 2.556,0 3.724,-1.033 4.431,-3.969 v -3.833 a 2.569,2.569 0 0 1 -2.909,-0.353 c 3.725,-1.876 3.725,-4.567 4.323,-8.047 0.68,-9.216 11.526,-10.167 11.064,-1.523 l -1.033,1.631 c 0.326,3.153 -0.136,5.708 3.724,5.845 z m 39.88,18.077 c -0.108,0.109 -3.969,-0.6 -4.186,-2.8 -0.245,-2.691 0.462,-5.138 -2.23,-7.231 -4.893,0.815 -1.169,6.17 0.245,7.8 2.692,2.582 2.2,2.582 5.954,2.691 0,0 0.353,-0.6 0.217,-0.462 z m 3.263,-7.014 c -2.447,-1.277 -3.263,-1.74 -4.078,-4.893 -0.109,-3.371 -2.909,-4.431 -3.018,0 1.522,4.893 3.371,6.2 8.509,5.355 a 13.548,13.548 0 0 1 -1.414,-0.462 z m 3.86,-7.448 -1.386,-0.245 c -3.4,-2.339 -2.229,-6.525 -3.616,-7.34 -1.169,-0.109 -1.631,0.353 -1.414,1.522 l 0.109,1.849 1.06,2.691 c 2.556,3.506 5.138,1.632 5.247,1.523 z m -17.833,-3.507 c 0,1.278 9.324,-3.725 7.8,-13.647 -5.355,0.108 -3.507,-3.507 -0.353,-1.631 -0.571,-1.63 -0.571,-4.214 0.951,-3.4 a 3.177,3.177 0 0 1 0.108,3.507 c 1.632,-0.816 2.692,-0.924 3.018,-0.707 0.354,1.169 0,1.767 -2.664,2.229 0.924,7.938 -1.522,14.57 -9,17.154 v 9.569 c 3.045,5.709 9,12.341 14.244,3.616 -3.4,0.815 -5.844,-0.245 -6.415,-2.936 l -0.6,-3.371 1.767,2.338 c 3.371,1.278 5.954,1.741 8.862,-2.582 l -2.229,-0.109 -1.386,-0.571 c -2.093,-1.06 -3.153,-3.045 -3.262,-5.736 1.631,1.631 6.742,3.86 8.862,-0.815 -2.582,0 -3.752,-1.034 -4.431,-3.969 v -3.833 a 2.439,2.439 0 0 0 2.909,-0.462 c -3.861,-1.767 -3.861,-4.567 -4.431,-8.046 -0.707,-9.107 -11.553,-10.031 -11.2,-1.414 l 1.169,1.631 c -0.353,3.153 0.217,5.845 -3.724,5.845 z"
           transform="translate(-1483.499,-1719.854)"
           fill="#fff"
           fill-rule="evenodd"
           style="fill:#3d6373;fill-opacity:1" />
        <path
           id="Path_5"
           data-name="Path 5"
           d="m 1068.989,1249.563 a 47.726,47.726 0 1 1 -63.829,21.965 47.835,47.835 0 0 1 63.829,-21.965 z m -0.951,1.9 a 45.465,45.465 0 1 1 -60.676,20.959 45.523,45.523 0 0 1 60.676,-20.959 z"
           transform="translate(-1000.33,-1244.744)"
           fill="#fff"
           fill-rule="evenodd"
           style="fill:#3d6373;fill-opacity:1" />
      </g>
    </g>
  </g>
</svg>
