<?xml version="1.0" encoding="UTF-8" standalone="no"?>
<!-- Created with Inkscape (http://www.inkscape.org/) -->

<svg
   version="1.1"
   id="svg1"
   width="48.378937"
   height="48.378937"
   viewBox="0 0 48.378937 48.378937"
   sodipodi:docname="logo.pdf"
   xmlns:inkscape="http://www.inkscape.org/namespaces/inkscape"
   xmlns:sodipodi="http://sodipodi.sourceforge.net/DTD/sodipodi-0.dtd"
   xmlns="http://www.w3.org/2000/svg"
   xmlns:svg="http://www.w3.org/2000/svg">
  <defs
     id="defs1" />
  <sodipodi:namedview
     id="namedview1"
     pagecolor="#ffffff"
     bordercolor="#999999"
     borderopacity="1"
     inkscape:showpageshadow="2"
     inkscape:pageopacity="0"
     inkscape:pagecheckerboard="0"
     inkscape:deskcolor="#d1d1d1">
    <inkscape:page
       x="0"
       y="0"
       width="48.378937"
       height="48.378937"
       id="page2"
       margin="0"
       bleed="0" />
  </sodipodi:namedview>
  <g
     id="g1"
     inkscape:groupmode="layer"
     inkscape:label="1"
     transform="translate(-198.28253,-216.10919)">
    <path
       id="path4"
       d="M 17.00824,0 C 17.00824,9.39351 9.39351,17.00824 0,17.00824 -9.39351,17.00824 -17.00824,9.39351 -17.00824,0 c 0,-9.39351 7.61473,-17.00824 17.00824,-17.00824 9.39351,0 17.00824,7.61473 17.00824,17.00824 z"
       style="fill:none;stroke:#000000;stroke-width:2.26773;stroke-linecap:butt;stroke-linejoin:miter;stroke-miterlimit:10;stroke-dasharray:none;stroke-opacity:1"
       transform="matrix(1.3333333,0,0,-1.3333333,222.472,240.29867)" />
    <path
       id="path5"
       d="m 3.1529141,-6.5628828 c 0.035156,-0.140625 0.035156,-0.1640625 0.035156,-0.1757813 0,-0.1289062 -0.1054687,-0.1757812 -0.2226562,-0.1757812 -0.035156,0 -0.046875,0 -0.070312,0.011719 l -1.2773438,0.058594 c -0.140625,0.011719 -0.3164062,0.023437 -0.3164062,0.3046875 0,0.1757812 0.1875,0.1757812 0.2578125,0.1757812 0.1054687,0 0.28125,0 0.4101562,0.023437 l -1.42968749,5.74218754 c -0.0117188,0.0351563 -0.0351563,0.1875 -0.0351563,0.234375 0,0.234375 0.1875,0.4453125 0.46875,0.4453125 0.18750009,0 0.46875009,-0.09375 0.60937509,-0.3984375 0.035156,-0.09375 0.1757812,-0.66796875 0.4570312,-1.82812504 0.1875,0.023437 1.0546875,0.140625 1.0546875,0.75 0,0.070312 0,0.09375 -0.023437,0.2109375 -0.035156,0.1289063 -0.035156,0.140625 -0.035156,0.23437504 0,0.64453125 0.6210937,1.03125 1.2773437,1.03125 0.9960938,0 1.3710938,-1.47656254 1.3710938,-1.55859374 0,-0.140625 -0.1523438,-0.140625 -0.2460938,-0.140625 -0.1757812,0 -0.1992187,0.023437 -0.2460937,0.1992187 -0.082031,0.2929688 -0.3164063,1.13671879 -0.8320313,1.13671879 -0.1523437,0 -0.2578125,-0.0820313 -0.2578125,-0.38671875 0,-0.09375 0.023437,-0.29296875 0.082031,-0.51562504 0.035156,-0.1171875 0.035156,-0.1757812 0.035156,-0.2460937 0,-0.8554688 -1.0078125,-1.0078125 -1.7226562,-1.078125 0.09375,-0.070312 0.328125,-0.234375 0.8789062,-0.7617188 0.7734375,-0.75 1.1835938,-0.8789062 1.4882813,-0.8789062 0.1875,0 0.2578125,0.1171875 0.2578125,0.1289062 -0.5039063,0.070313 -0.6914063,0.46875 -0.6914063,0.7148438 0,0.2109375 0.1757813,0.4570312 0.5039063,0.4570312 0.1875,0 0.7148437,-0.1289062 0.7148437,-0.84375 0,-0.515625 -0.328125,-0.8085937 -0.7617187,-0.8085937 -0.5976563,0 -1.1484375,0.4335937 -1.734375,1.0078125 -0.1054688,0.1054687 -0.5859375,0.5625 -0.9609375,0.7734375 z m 5.8388671,2.8125 c -0.140625,-0.4921875 -0.6914062,-0.75 -1.2304687,-0.75 -0.3632813,0 -0.6445313,0.2109375 -0.8554688,0.5625 -0.2578125,0.3984375 -0.3867187,0.9375 -0.3867187,0.984375 0,0.140625 0.1523437,0.140625 0.2460937,0.140625 0.1054688,0 0.140625,0 0.1992188,-0.046875 0.011719,-0.023437 0.011719,-0.035156 0.070312,-0.2929688 0.1992187,-0.7734375 0.421875,-0.9960937 0.6796875,-0.9960937 0.1523437,0 0.234375,0.1054687 0.234375,0.375 0,0.1640625 -0.046875,0.328125 -0.140625,0.7265625 -0.070312,0.28125 -0.1757813,0.6796875 -0.2226563,0.890625 l -0.3515625,1.39453124 c -0.035156,0.140625 -0.082031,0.328125 -0.082031,0.3984375 0,0.2109375 0.1523437,0.4453125 0.46875,0.4453125 0.515625,0 0.6328125,-0.45703125 0.703125,-0.76171875 0.1054687,-0.36328129 0.1757812,-0.67968749 0.28125,-1.11328129 0.035156,-0.1289062 0.2929687,-1.1601562 0.3046875,-1.1835937 0.011719,-0.058594 0.2929687,-0.515625 0.6210937,-0.7734375 0.28125,-0.2226563 0.6093756,-0.3984375 1.0195316,-0.3984375 0.269531,0 0.503906,0.1054687 0.503906,0.5976562 0,0.5625 -0.433594,1.7226563 -0.632812,2.2265625 -0.105469,0.2695313 -0.128907,0.33984379 -0.128907,0.50390629 0,0.5859375 0.574219,0.90234375 1.125,0.90234375 1.054688,0 1.546875,-1.35937504 1.546875,-1.55859374 0,-0.140625 -0.152343,-0.140625 -0.234375,-0.140625 -0.117187,0 -0.1875,0 -0.234375,0.1289062 -0.328125,1.11328129 -0.867187,1.20703129 -1.019531,1.20703129 -0.07031,0 -0.175781,0 -0.175781,-0.2109375 0,-0.22265625 0.105469,-0.46875 0.199219,-0.72656249 0.164062,-0.4101563 0.621093,-1.5703125 0.621093,-2.1328125 0,-0.9140625 -0.773437,-1.1484375 -1.488281,-1.1484375 -0.210937,0 -0.9375001,0 -1.6406248,0.75 z m 8.5957028,2.6484375 c -0.05859,0.25781249 -0.164062,0.66796874 -0.164062,0.73828124 0,0.2109375 0.164062,0.4453125 0.46875,0.4453125 0.164062,0 0.480469,-0.09375 0.621094,-0.43359375 0.08203,-0.2109375 0.527343,-2.08593749 0.632812,-2.49609379 0.03516,-0.1523437 0.04687,-0.1992187 0.257813,-0.4804687 0.257812,-0.3398438 0.726562,-0.8203125 1.429687,-0.8203125 0.257813,0 0.492188,0.1054687 0.492188,0.5976562 0,0.5625 -0.433594,1.7226563 -0.621094,2.2265625 -0.117188,0.2695313 -0.140625,0.33984379 -0.140625,0.50390629 0,0.5859375 0.574219,0.90234375 1.125,0.90234375 1.054687,0 1.546875,-1.35937504 1.546875,-1.55859374 0,-0.140625 -0.140625,-0.140625 -0.234375,-0.140625 -0.117188,0 -0.1875,0 -0.234375,0.1289062 -0.328125,1.11328129 -0.867188,1.20703129 -1.019531,1.20703129 -0.07031,0 -0.175782,0 -0.175782,-0.2109375 0,-0.22265625 0.105469,-0.46875 0.199219,-0.72656249 0.164063,-0.4101563 0.621094,-1.5703125 0.621094,-2.1328125 0,-0.9140625 -0.761719,-1.1484375 -1.488281,-1.1484375 -0.222657,0 -0.984375,0 -1.722657,0.8554687 -0.03516,-0.1289062 -0.105468,-0.4453125 -0.480468,-0.6445312 -0.363282,-0.2109375 -0.855469,-0.2109375 -0.972657,-0.2109375 -0.210937,0 -0.9375,0 -1.640625,0.75 -0.140625,-0.4921875 -0.691406,-0.75 -1.230468,-0.75 -0.363282,0 -0.644532,0.2109375 -0.855469,0.5625 -0.257813,0.3984375 -0.386719,0.9375 -0.386719,0.984375 0,0.140625 0.152344,0.140625 0.246094,0.140625 0.105469,0 0.140625,0 0.199219,-0.046875 0.01172,-0.023437 0.01172,-0.035156 0.07031,-0.2929688 0.199219,-0.7734375 0.421875,-0.9960937 0.679688,-0.9960937 0.152343,0 0.234375,0.1054687 0.234375,0.375 0,0.1640625 -0.04687,0.328125 -0.140625,0.7265625 -0.07031,0.28125 -0.175782,0.6796875 -0.222657,0.890625 l -0.351562,1.39453124 c -0.03516,0.140625 -0.08203,0.328125 -0.08203,0.3984375 0,0.2109375 0.152343,0.4453125 0.46875,0.4453125 0.515625,0 0.632812,-0.45703125 0.703125,-0.76171875 0.105468,-0.36328129 0.175781,-0.67968749 0.28125,-1.11328129 0.03516,-0.1289062 0.292968,-1.1601562 0.304687,-1.1835937 0.01172,-0.058594 0.292969,-0.515625 0.621094,-0.7734375 0.28125,-0.2226563 0.609375,-0.3984375 1.019531,-0.3984375 0.269531,0 0.503906,0.1054687 0.503906,0.5976562 0,0.2226563 -0.07031,0.515625 -0.105468,0.65625 z m 8.501953,-2.8476563 h 0.890625 c 0.199219,0 0.222657,0 0.269532,-0.058594 0.05859,-0.035156 0.08203,-0.1757813 0.08203,-0.234375 0,-0.1757813 -0.164063,-0.1757813 -0.328125,-0.1757813 h -0.796875 l 0.328125,-1.2890625 c 0.03516,-0.1640625 0.03516,-0.2226562 0.03516,-0.2578125 0,-0.3164062 -0.257812,-0.4453125 -0.46875,-0.4453125 -0.152344,0 -0.421875,0.070312 -0.574219,0.3515625 -0.04687,0.082031 -0.164062,0.5390625 -0.234375,0.8203125 l -0.199218,0.8203125 h -0.890625 c -0.199219,0 -0.375,0 -0.375,0.28125 0,0.1875 0.164062,0.1875 0.339843,0.1875 h 0.808594 l -0.5625,2.2617188 c -0.07031,0.2578125 -0.175781,0.6796875 -0.175781,0.78515624 0,0.65625 0.644531,0.984375 1.253906,0.984375 1.183594,0 1.863281,-1.38281254 1.863281,-1.55859374 0,-0.140625 -0.152343,-0.140625 -0.234375,-0.140625 -0.175781,0 -0.1875,0.011719 -0.246093,0.1640625 -0.386719,0.85546874 -0.9375,1.17187499 -1.335938,1.17187499 -0.08203,0 -0.234375,0 -0.234375,-0.36328125 0,-0.1875 0.03516,-0.3046875 0.05859,-0.43359374 z m 0,0"
       style="fill:#808080;fill-opacity:1;fill-rule:nonzero;stroke:none"
       aria-label="knmt"
       transform="matrix(1.3333333,0,0,1.3333333,204.74533,244.91067)" />
    <path
       id="path6"
       d="m 3.1515547,-6.5628828 c 0.035156,-0.140625 0.035156,-0.1640625 0.035156,-0.1757813 0,-0.1289062 -0.1054687,-0.1757812 -0.2226562,-0.1757812 -0.035156,0 -0.046875,0 -0.070312,0.011719 l -1.2773438,0.058594 c -0.140625,0.011719 -0.3164062,0.023437 -0.3164062,0.3046875 0,0.1757812 0.1875,0.1757812 0.2578125,0.1757812 0.1054687,0 0.28125,0 0.4101562,0.023437 l -1.42968746,5.74218754 c -0.0117188,0.0351563 -0.0351563,0.1875 -0.0351563,0.234375 0,0.234375 0.1875,0.4453125 0.46875,0.4453125 0.18750006,0 0.46875006,-0.09375 0.60937506,-0.3984375 0.035156,-0.09375 0.1757812,-0.66796875 0.4570312,-1.82812504 0.1875,0.023437 1.0546875,0.140625 1.0546875,0.75 0,0.070312 0,0.09375 -0.023437,0.2109375 -0.035156,0.1289063 -0.035156,0.140625 -0.035156,0.23437504 0,0.64453125 0.6210937,1.03125 1.2773437,1.03125 0.9960938,0 1.3710938,-1.47656254 1.3710938,-1.55859374 0,-0.140625 -0.1523438,-0.140625 -0.2460938,-0.140625 -0.1757812,0 -0.1992187,0.023437 -0.2460937,0.1992187 -0.082031,0.2929688 -0.3164063,1.13671879 -0.8320313,1.13671879 -0.1523437,0 -0.2578125,-0.0820313 -0.2578125,-0.38671875 0,-0.09375 0.023437,-0.29296875 0.082031,-0.51562504 0.035156,-0.1171875 0.035156,-0.1757812 0.035156,-0.2460937 0,-0.8554688 -1.0078125,-1.0078125 -1.7226562,-1.078125 0.09375,-0.070312 0.328125,-0.234375 0.8789062,-0.7617188 0.7734374,-0.75 1.1835937,-0.8789062 1.4882812,-0.8789062 0.1875,0 0.2578125,0.1171875 0.2578125,0.1289062 -0.5039062,0.070313 -0.6914062,0.46875 -0.6914062,0.7148438 0,0.2109375 0.1757812,0.4570312 0.5039062,0.4570312 0.1875,0 0.7148438,-0.1289062 0.7148438,-0.84375 0,-0.515625 -0.328125,-0.8085937 -0.7617188,-0.8085937 -0.5976562,0 -1.1484374,0.4335937 -1.7343749,1.0078125 -0.1054688,0.1054687 -0.5859375,0.5625 -0.9609375,0.7734375 z m 5.8417969,2.8125 c -0.140625,-0.4921875 -0.6914063,-0.75 -1.2304688,-0.75 -0.3632812,0 -0.6445312,0.2109375 -0.8554687,0.5625 -0.2578125,0.3984375 -0.3867188,0.9375 -0.3867188,0.984375 0,0.140625 0.1523438,0.140625 0.2460938,0.140625 0.1054687,0 0.140625,0 0.1992187,-0.046875 0.011719,-0.023437 0.011719,-0.035156 0.070312,-0.2929688 0.1992188,-0.7734375 0.421875,-0.9960937 0.6796875,-0.9960937 0.1523438,0 0.234375,0.1054687 0.234375,0.375 0,0.1640625 -0.046875,0.328125 -0.140625,0.7265625 -0.070312,0.28125 -0.1757812,0.6796875 -0.2226562,0.890625 l -0.3515625,1.39453124 c -0.035156,0.140625 -0.082031,0.328125 -0.082031,0.3984375 0,0.2109375 0.1523438,0.4453125 0.46875,0.4453125 0.515625,0 0.6328125,-0.45703125 0.703125,-0.76171875 0.1054688,-0.36328129 0.1757813,-0.67968749 0.28125,-1.11328129 0.035156,-0.1289062 0.2929688,-1.1601562 0.3046875,-1.1835937 0.011719,-0.058594 0.2929688,-0.515625 0.6210938,-0.7734375 0.28125,-0.2226563 0.6093751,-0.3984375 1.0195311,-0.3984375 0.269532,0 0.503907,0.1054687 0.503907,0.5976562 0,0.5625 -0.433594,1.7226563 -0.632813,2.2265625 -0.105469,0.2695313 -0.128906,0.33984379 -0.128906,0.50390629 0,0.5859375 0.574219,0.90234375 1.125,0.90234375 1.054687,0 1.546875,-1.35937504 1.546875,-1.55859374 0,-0.140625 -0.152344,-0.140625 -0.234375,-0.140625 -0.117188,0 -0.1875,0 -0.234375,0.1289062 -0.328125,1.11328129 -0.867188,1.20703129 -1.019531,1.20703129 -0.07031,0 -0.175782,0 -0.175782,-0.2109375 0,-0.22265625 0.105469,-0.46875 0.199219,-0.72656249 0.164063,-0.4101563 0.621094,-1.5703125 0.621094,-2.1328125 0,-0.9140625 -0.773438,-1.1484375 -1.488281,-1.1484375 -0.210938,0 -0.9375006,0 -1.6406254,0.75 z m 8.5927734,2.6484375 c -0.05859,0.25781249 -0.164063,0.66796874 -0.164063,0.73828124 0,0.2109375 0.164063,0.4453125 0.46875,0.4453125 0.164063,0 0.480469,-0.09375 0.621094,-0.43359375 0.08203,-0.2109375 0.527344,-2.08593749 0.632813,-2.49609379 0.03516,-0.1523437 0.04687,-0.1992187 0.257812,-0.4804687 0.257813,-0.3398438 0.726563,-0.8203125 1.429688,-0.8203125 0.257812,0 0.492187,0.1054687 0.492187,0.5976562 0,0.5625 -0.433594,1.7226563 -0.621094,2.2265625 -0.117187,0.2695313 -0.140625,0.33984379 -0.140625,0.50390629 0,0.5859375 0.574219,0.90234375 1.125,0.90234375 1.054688,0 1.546875,-1.35937504 1.546875,-1.55859374 0,-0.140625 -0.140625,-0.140625 -0.234375,-0.140625 -0.117187,0 -0.1875,0 -0.234375,0.1289062 -0.328125,1.11328129 -0.867187,1.20703129 -1.019531,1.20703129 -0.07031,0 -0.175781,0 -0.175781,-0.2109375 0,-0.22265625 0.105469,-0.46875 0.199219,-0.72656249 0.164062,-0.4101563 0.621093,-1.5703125 0.621093,-2.1328125 0,-0.9140625 -0.761718,-1.1484375 -1.488281,-1.1484375 -0.222656,0 -0.984375,0 -1.722656,0.8554687 -0.03516,-0.1289062 -0.105469,-0.4453125 -0.480469,-0.6445312 -0.363281,-0.2109375 -0.855469,-0.2109375 -0.972656,-0.2109375 -0.210938,0 -0.9375,0 -1.640625,0.75 -0.140625,-0.4921875 -0.691406,-0.75 -1.230469,-0.75 -0.363281,0 -0.644531,0.2109375 -0.855469,0.5625 -0.257812,0.3984375 -0.386718,0.9375 -0.386718,0.984375 0,0.140625 0.152343,0.140625 0.246093,0.140625 0.105469,0 0.140625,0 0.199219,-0.046875 0.01172,-0.023437 0.01172,-0.035156 0.07031,-0.2929688 0.199218,-0.7734375 0.421875,-0.9960937 0.679687,-0.9960937 0.152344,0 0.234375,0.1054687 0.234375,0.375 0,0.1640625 -0.04687,0.328125 -0.140625,0.7265625 -0.07031,0.28125 -0.175781,0.6796875 -0.222656,0.890625 l -0.351563,1.39453124 c -0.03516,0.140625 -0.08203,0.328125 -0.08203,0.3984375 0,0.2109375 0.152344,0.4453125 0.46875,0.4453125 0.515625,0 0.632813,-0.45703125 0.703125,-0.76171875 0.105469,-0.36328129 0.175781,-0.67968749 0.28125,-1.11328129 0.03516,-0.1289062 0.292969,-1.1601562 0.304688,-1.1835937 0.01172,-0.058594 0.292968,-0.515625 0.621093,-0.7734375 0.28125,-0.2226563 0.609375,-0.3984375 1.019532,-0.3984375 0.269531,0 0.503906,0.1054687 0.503906,0.5976562 0,0.2226563 -0.07031,0.515625 -0.105469,0.65625 z m 8.504883,-2.8476563 h 0.890625 c 0.199219,0 0.222656,0 0.269531,-0.058594 0.05859,-0.035156 0.08203,-0.1757813 0.08203,-0.234375 0,-0.1757813 -0.164062,-0.1757813 -0.328125,-0.1757813 h -0.796875 l 0.328125,-1.2890625 c 0.03516,-0.1640625 0.03516,-0.2226562 0.03516,-0.2578125 0,-0.3164062 -0.257813,-0.4453125 -0.46875,-0.4453125 -0.152344,0 -0.421875,0.070312 -0.574219,0.3515625 -0.04687,0.082031 -0.164063,0.5390625 -0.234375,0.8203125 l -0.199219,0.8203125 h -0.890625 c -0.199219,0 -0.375,0 -0.375,0.28125 0,0.1875 0.164063,0.1875 0.339844,0.1875 h 0.808594 l -0.5625,2.2617188 c -0.07031,0.2578125 -0.175782,0.6796875 -0.175782,0.78515624 0,0.65625 0.644532,0.984375 1.253907,0.984375 1.183593,0 1.863281,-1.38281254 1.863281,-1.55859374 0,-0.140625 -0.152344,-0.140625 -0.234375,-0.140625 -0.175781,0 -0.1875,0.011719 -0.246094,0.1640625 -0.386719,0.85546874 -0.9375,1.17187499 -1.335937,1.17187499 -0.08203,0 -0.234375,0 -0.234375,-0.36328125 0,-0.1875 0.03516,-0.3046875 0.05859,-0.43359374 z m 0,0"
       style="fill:#000000;fill-opacity:1;fill-rule:nonzero;stroke:none"
       aria-label="knmt"
       transform="matrix(1.3333333,0,0,1.3333333,203.98933,244.91067)" />
  </g>
</svg>
