<?xml version="1.0" encoding="UTF-8" standalone="no"?>
<!-- Uploaded to: SVG Repo, www.svgrepo.com, Generator: SVG Repo Mixer Tools -->

<svg
   height="800"
   width="404.11716"
   version="1.1"
   id="Layer_1"
   viewBox="0 0 258.63498 512"
   xml:space="preserve"
   xmlns="http://www.w3.org/2000/svg"
   xmlns:svg="http://www.w3.org/2000/svg"><defs
   id="defs1" />
<path
   style="fill:#3d6373;fill-opacity:1"
   d="M 8.2590006,272.691 H 64.382001 v 231.051 c 0,4.562 3.696,8.258 8.258,8.258 H 167.799 c 4.562,0 8.258,-3.696 8.258,-8.258 V 273.78 h 64.519 c 4.195,0 7.725,-3.148 8.204,-7.315 l 9.799,-85.061 c 0.269,-2.34 -0.472,-4.684 -2.038,-6.44 -1.567,-1.757 -3.81,-2.763 -6.164,-2.763 H 176.061 V 118.88 c 0,-16.073 8.654,-24.224 25.726,-24.224 2.433,0 48.59,0 48.59,0 4.562,0 8.258,-3.698 8.258,-8.258 V 8.319 c 0,-4.562 -3.696,-8.258 -8.258,-8.258 H 183.412 C 182.94,0.038 181.891,0 180.345,0 168.726,0 128.339,2.281 96.436001,31.63 c -35.348,32.524 -30.434,71.465 -29.26,78.217 v 62.352 H 8.2580006 c -4.562,0 -8.25800003614141,3.696 -8.25800003614141,8.258 v 83.975 C 0.00100056,268.993 3.6970006,272.691 8.2590006,272.691 Z"
   id="path1" />
</svg>
